<?xml version="1.0" encoding="UTF-8"?>
<svg xmlns="http://www.w3.org/2000/svg" xmlns:xlink="http://www.w3.org/1999/xlink" width="468pt" height="288pt" viewBox="0 0 468 288">
<defs>
<g>
<g id="glyph-0-0">
<path d="M 2.859375 -7.53125 C 2.171875 -7.53125 1.546875 -7.21875 1.171875 -6.703125 C 0.6875 -6.03125 0.453125 -5.03125 0.453125 -3.640625 C 0.453125 -1.109375 1.28125 0.234375 2.859375 0.234375 C 4.421875 0.234375 5.28125 -1.109375 5.28125 -3.578125 C 5.28125 -5.03125 5.046875 -6.015625 4.5625 -6.703125 C 4.171875 -7.21875 3.5625 -7.53125 2.859375 -7.53125 Z M 2.859375 -6.71875 C 3.84375 -6.71875 4.34375 -5.703125 4.34375 -3.65625 C 4.34375 -1.515625 3.859375 -0.515625 2.84375 -0.515625 C 1.875 -0.515625 1.390625 -1.5625 1.390625 -3.625 C 1.390625 -5.703125 1.875 -6.71875 2.859375 -6.71875 Z M 2.859375 -6.71875 "/>
</g>
<g id="glyph-0-1">
<path d="M 2.296875 -3.46875 L 2.796875 -3.46875 C 3.796875 -3.46875 4.328125 -3 4.328125 -2.09375 C 4.328125 -1.140625 3.75 -0.578125 2.8125 -0.578125 C 1.796875 -0.578125 1.3125 -1.078125 1.25 -2.1875 L 0.328125 -2.1875 C 0.375 -1.578125 0.484375 -1.1875 0.65625 -0.859375 C 1.046875 -0.125 1.765625 0.234375 2.765625 0.234375 C 4.28125 0.234375 5.265625 -0.671875 5.265625 -2.109375 C 5.265625 -3.0625 4.90625 -3.578125 4.015625 -3.890625 C 4.703125 -4.171875 5.046875 -4.6875 5.046875 -5.453125 C 5.046875 -6.75 4.203125 -7.53125 2.796875 -7.53125 C 1.3125 -7.53125 0.515625 -6.6875 0.484375 -5.09375 L 1.40625 -5.09375 C 1.421875 -5.5625 1.453125 -5.8125 1.578125 -6.046875 C 1.78125 -6.46875 2.234375 -6.71875 2.8125 -6.71875 C 3.625 -6.71875 4.109375 -6.234375 4.109375 -5.421875 C 4.109375 -4.890625 3.921875 -4.5625 3.515625 -4.390625 C 3.265625 -4.28125 2.9375 -4.25 2.296875 -4.234375 Z M 2.296875 -3.46875 "/>
</g>
<g id="glyph-0-2">
<path d="M 5.1875 -5.5625 C 5 -6.796875 4.21875 -7.53125 3.09375 -7.53125 C 2.28125 -7.53125 1.546875 -7.125 1.109375 -6.453125 C 0.640625 -5.71875 0.453125 -4.796875 0.453125 -3.4375 C 0.453125 -2.171875 0.625 -1.359375 1.078125 -0.703125 C 1.46875 -0.078125 2.109375 0.234375 2.921875 0.234375 C 4.328125 0.234375 5.34375 -0.8125 5.34375 -2.28125 C 5.34375 -3.65625 4.40625 -4.640625 3.078125 -4.640625 C 2.359375 -4.640625 1.78125 -4.375 1.390625 -3.8125 C 1.390625 -5.6875 1.984375 -6.71875 3.03125 -6.71875 C 3.671875 -6.71875 4.125 -6.296875 4.265625 -5.5625 Z M 2.96875 -3.828125 C 3.84375 -3.828125 4.40625 -3.203125 4.40625 -2.203125 C 4.40625 -1.265625 3.78125 -0.578125 2.9375 -0.578125 C 2.078125 -0.578125 1.4375 -1.296875 1.4375 -2.25 C 1.4375 -3.1875 2.0625 -3.828125 2.96875 -3.828125 Z M 2.96875 -3.828125 "/>
</g>
<g id="glyph-0-3">
<path d="M 0.546875 -1.71875 C 0.734375 -0.484375 1.515625 0.234375 2.640625 0.234375 C 3.46875 0.234375 4.1875 -0.15625 4.625 -0.828125 C 5.09375 -1.578125 5.296875 -2.484375 5.296875 -3.84375 C 5.296875 -5.125 5.109375 -5.921875 4.671875 -6.59375 C 4.265625 -7.203125 3.625 -7.53125 2.8125 -7.53125 C 1.40625 -7.53125 0.390625 -6.46875 0.390625 -5.015625 C 0.390625 -3.625 1.328125 -2.65625 2.65625 -2.65625 C 3.359375 -2.65625 3.875 -2.90625 4.34375 -3.46875 C 4.34375 -1.609375 3.75 -0.578125 2.703125 -0.578125 C 2.0625 -0.578125 1.609375 -0.984375 1.46875 -1.71875 Z M 2.796875 -6.71875 C 3.65625 -6.71875 4.296875 -6 4.296875 -5.03125 C 4.296875 -4.109375 3.671875 -3.46875 2.765625 -3.46875 C 1.890625 -3.46875 1.328125 -4.09375 1.328125 -5.09375 C 1.328125 -6.03125 1.953125 -6.71875 2.796875 -6.71875 Z M 2.796875 -6.71875 "/>
</g>
<g id="glyph-0-4">
<path d="M 2.6875 -5.359375 L 2.6875 0 L 3.609375 0 L 3.609375 -7.53125 L 3 -7.53125 C 2.6875 -6.375 2.484375 -6.21875 1.0625 -6.03125 L 1.0625 -5.359375 Z M 2.6875 -5.359375 "/>
</g>
<g id="glyph-0-5">
<path d="M 5.265625 -0.90625 L 1.390625 -0.90625 C 1.484375 -1.53125 1.8125 -1.921875 2.71875 -2.484375 L 3.75 -3.0625 C 4.78125 -3.625 5.3125 -4.40625 5.3125 -5.328125 C 5.3125 -5.953125 5.0625 -6.53125 4.625 -6.9375 C 4.1875 -7.34375 3.65625 -7.53125 2.953125 -7.53125 C 2.015625 -7.53125 1.328125 -7.1875 0.921875 -6.546875 C 0.65625 -6.15625 0.546875 -5.6875 0.515625 -4.921875 L 1.4375 -4.921875 C 1.46875 -5.4375 1.53125 -5.734375 1.65625 -5.984375 C 1.890625 -6.4375 2.375 -6.71875 2.921875 -6.71875 C 3.75 -6.71875 4.375 -6.125 4.375 -5.3125 C 4.375 -4.703125 4.03125 -4.1875 3.375 -3.8125 L 2.421875 -3.25 C 0.890625 -2.359375 0.4375 -1.65625 0.359375 -0.015625 L 5.265625 -0.015625 Z M 5.265625 -0.90625 "/>
</g>
<g id="glyph-1-0">
<path d="M 6.078125 0 L 8.75 -7.9375 L 8.75 0 L 9.890625 0 L 9.890625 -9.484375 L 8.21875 -9.484375 L 5.453125 -1.21875 L 2.65625 -9.484375 L 0.96875 -9.484375 L 0.96875 0 L 2.125 0 L 2.125 -7.9375 L 4.8125 0 Z M 6.078125 0 "/>
</g>
<g id="glyph-1-1">
<path d="M 1.953125 -6.8125 L 0.875 -6.8125 L 0.875 0 L 1.953125 0 Z M 1.953125 -9.484375 L 0.859375 -9.484375 L 0.859375 -8.109375 L 1.953125 -8.109375 Z M 1.953125 -9.484375 "/>
</g>
<g id="glyph-1-2">
<path d="M 1.96875 -9.484375 L 0.890625 -9.484375 L 0.890625 0 L 1.96875 0 Z M 1.96875 -9.484375 "/>
</g>
<g id="glyph-1-3">
<path d="M 6.671875 -3.046875 C 6.671875 -4.078125 6.59375 -4.703125 6.390625 -5.21875 C 5.953125 -6.328125 4.90625 -7 3.640625 -7 C 1.734375 -7 0.515625 -5.5625 0.515625 -3.3125 C 0.515625 -1.0625 1.6875 0.296875 3.609375 0.296875 C 5.171875 0.296875 6.25 -0.578125 6.53125 -2.0625 L 5.4375 -2.0625 C 5.140625 -1.171875 4.53125 -0.703125 3.65625 -0.703125 C 2.96875 -0.703125 2.375 -1.015625 2.015625 -1.59375 C 1.75 -1.96875 1.65625 -2.359375 1.65625 -3.046875 Z M 1.671875 -3.921875 C 1.765625 -5.1875 2.53125 -6 3.625 -6 C 4.734375 -6 5.5 -5.140625 5.5 -3.921875 Z M 1.671875 -3.921875 "/>
</g>
<g id="glyph-1-4">
<path d="M 5.6875 -4.90625 C 5.6875 -6.25 4.796875 -7 3.21875 -7 C 1.640625 -7 0.609375 -6.1875 0.609375 -4.921875 C 0.609375 -3.859375 1.15625 -3.359375 2.765625 -2.96875 L 3.78125 -2.71875 C 4.53125 -2.53125 4.84375 -2.265625 4.84375 -1.78125 C 4.84375 -1.125 4.203125 -0.703125 3.25 -0.703125 C 2.671875 -0.703125 2.171875 -0.875 1.890625 -1.15625 C 1.734375 -1.359375 1.65625 -1.546875 1.59375 -2.03125 L 0.4375 -2.03125 C 0.5 -0.453125 1.375 0.296875 3.15625 0.296875 C 4.875 0.296875 5.96875 -0.546875 5.96875 -1.859375 C 5.96875 -2.875 5.390625 -3.4375 4.046875 -3.75 L 3 -4 C 2.125 -4.21875 1.734375 -4.5 1.734375 -4.984375 C 1.734375 -5.609375 2.296875 -6 3.1875 -6 C 4.0625 -6 4.53125 -5.625 4.546875 -4.90625 Z M 5.6875 -4.90625 "/>
</g>
<g id="glyph-1-5">
</g>
<g id="glyph-1-6">
<path d="M 0.703125 2.828125 L 1.796875 2.828125 L 1.796875 -0.71875 C 2.359375 -0.015625 3 0.296875 3.890625 0.296875 C 5.65625 0.296875 6.796875 -1.125 6.796875 -3.28125 C 6.796875 -5.578125 5.6875 -7 3.875 -7 C 2.953125 -7 2.203125 -6.59375 1.703125 -5.78125 L 1.703125 -6.8125 L 0.703125 -6.8125 Z M 3.6875 -6 C 4.890625 -6 5.671875 -4.9375 5.671875 -3.3125 C 5.671875 -1.765625 4.875 -0.71875 3.6875 -0.71875 C 2.53125 -0.71875 1.796875 -1.75 1.796875 -3.359375 C 1.796875 -4.953125 2.53125 -6 3.6875 -6 Z M 3.6875 -6 "/>
</g>
<g id="glyph-1-7">
<path d="M 6.953125 -0.640625 C 6.84375 -0.609375 6.78125 -0.609375 6.71875 -0.609375 C 6.34375 -0.609375 6.140625 -0.8125 6.140625 -1.140625 L 6.140625 -5.140625 C 6.140625 -6.359375 5.25 -7 3.578125 -7 C 2.578125 -7 1.78125 -6.71875 1.3125 -6.21875 C 1 -5.859375 0.875 -5.46875 0.84375 -4.796875 L 1.9375 -4.796875 C 2.03125 -5.625 2.515625 -6 3.53125 -6 C 4.53125 -6 5.0625 -5.640625 5.0625 -4.984375 L 5.0625 -4.703125 C 5.046875 -4.234375 4.8125 -4.0625 3.921875 -3.953125 C 2.390625 -3.75 2.15625 -3.703125 1.734375 -3.53125 C 0.953125 -3.203125 0.546875 -2.59375 0.546875 -1.71875 C 0.546875 -0.484375 1.40625 0.296875 2.78125 0.296875 C 3.640625 0.296875 4.328125 0 5.09375 -0.703125 C 5.171875 0 5.515625 0.296875 6.21875 0.296875 C 6.453125 0.296875 6.59375 0.265625 6.953125 0.1875 Z M 5.0625 -2.140625 C 5.0625 -1.78125 4.953125 -1.5625 4.625 -1.265625 C 4.1875 -0.859375 3.65625 -0.65625 3.015625 -0.65625 C 2.171875 -0.65625 1.671875 -1.046875 1.671875 -1.734375 C 1.671875 -2.453125 2.140625 -2.828125 3.3125 -2.984375 C 4.46875 -3.140625 4.6875 -3.203125 5.0625 -3.359375 Z M 5.0625 -2.140625 "/>
</g>
<g id="glyph-1-8">
<path d="M 0.890625 -6.8125 L 0.890625 0 L 1.984375 0 L 1.984375 -3.53125 C 2 -5.171875 2.671875 -5.90625 4.171875 -5.859375 L 4.171875 -6.96875 C 3.984375 -7 3.890625 -7 3.75 -7 C 3.0625 -7 2.515625 -6.59375 1.890625 -5.578125 L 1.890625 -6.8125 Z M 0.890625 -6.8125 "/>
</g>
<g id="glyph-1-9">
<path d="M 5.25 -6.8125 L 5.25 -5.828125 C 4.703125 -6.640625 4.109375 -7 3.25 -7 C 1.59375 -7 0.453125 -5.46875 0.453125 -3.28125 C 0.453125 -2.140625 0.734375 -1.3125 1.3125 -0.625 C 1.8125 -0.03125 2.46875 0.296875 3.171875 0.296875 C 3.984375 0.296875 4.578125 -0.0625 5.140625 -0.921875 L 5.140625 -0.578125 C 5.140625 1.25 4.640625 1.921875 3.28125 1.921875 C 2.359375 1.921875 1.890625 1.5625 1.78125 0.78125 L 0.671875 0.78125 C 0.78125 2.046875 1.78125 2.828125 3.265625 2.828125 C 4.265625 2.828125 5.09375 2.515625 5.53125 1.96875 C 6.0625 1.328125 6.25 0.484375 6.25 -1.125 L 6.25 -6.8125 Z M 3.359375 -6 C 4.5 -6 5.140625 -5.046875 5.140625 -3.3125 C 5.140625 -1.65625 4.484375 -0.703125 3.359375 -0.703125 C 2.234375 -0.703125 1.59375 -1.671875 1.59375 -3.359375 C 1.59375 -5.015625 2.234375 -6 3.359375 -6 Z M 3.359375 -6 "/>
</g>
<g id="glyph-1-10">
<path d="M 3.53125 -7 C 1.609375 -7 0.46875 -5.640625 0.46875 -3.359375 C 0.46875 -1.046875 1.609375 0.296875 3.546875 0.296875 C 5.46875 0.296875 6.625 -1.0625 6.625 -3.296875 C 6.625 -5.671875 5.515625 -7 3.53125 -7 Z M 3.546875 -6 C 4.765625 -6 5.5 -5 5.5 -3.3125 C 5.5 -1.703125 4.75 -0.703125 3.546875 -0.703125 C 2.34375 -0.703125 1.59375 -1.703125 1.59375 -3.359375 C 1.59375 -5 2.34375 -6 3.546875 -6 Z M 3.546875 -6 "/>
</g>
<g id="glyph-1-11">
<path d="M 0.90625 -6.8125 L 0.90625 0 L 2 0 L 2 -3.75 C 2 -5.140625 2.734375 -6.0625 3.84375 -6.0625 C 4.703125 -6.0625 5.25 -5.53125 5.25 -4.71875 L 5.25 0 L 6.328125 0 L 6.328125 -5.140625 C 6.328125 -6.28125 5.484375 -7 4.171875 -7 C 3.15625 -7 2.515625 -6.609375 1.90625 -5.671875 L 1.90625 -6.8125 Z M 0.90625 -6.8125 "/>
</g>
<g id="glyph-1-12">
<path d="M 3.0625 -9.484375 C 1.765625 -7.78125 0.953125 -5.40625 0.953125 -3.359375 C 0.953125 -1.3125 1.765625 1.046875 3.0625 2.75 L 3.78125 2.75 C 2.640625 0.890625 2 -1.28125 2 -3.359375 C 2 -5.4375 2.640625 -7.625 3.78125 -9.484375 Z M 3.0625 -9.484375 "/>
</g>
<g id="glyph-1-13">
<path d="M 0.90625 -6.8125 L 0.90625 0 L 2 0 L 2 -4.28125 C 2 -5.265625 2.71875 -6.0625 3.59375 -6.0625 C 4.40625 -6.0625 4.859375 -5.5625 4.859375 -4.6875 L 4.859375 0 L 5.953125 0 L 5.953125 -4.28125 C 5.953125 -5.265625 6.671875 -6.0625 7.546875 -6.0625 C 8.34375 -6.0625 8.8125 -5.546875 8.8125 -4.6875 L 8.8125 0 L 9.90625 0 L 9.90625 -5.109375 C 9.90625 -6.328125 9.203125 -7 7.9375 -7 C 7.015625 -7 6.46875 -6.734375 5.84375 -5.96875 C 5.4375 -6.6875 4.890625 -7 4 -7 C 3.09375 -7 2.484375 -6.671875 1.90625 -5.84375 L 1.90625 -6.8125 Z M 0.90625 -6.8125 "/>
</g>
<g id="glyph-1-14">
<path d="M 1.203125 2.75 C 2.515625 1.046875 3.328125 -1.3125 3.328125 -3.359375 C 3.328125 -5.40625 2.515625 -7.78125 1.203125 -9.484375 L 0.5 -9.484375 C 1.640625 -7.625 2.28125 -5.4375 2.28125 -3.359375 C 2.28125 -1.28125 1.640625 0.90625 0.5 2.75 Z M 1.203125 2.75 "/>
</g>
<g id="glyph-2-0">
<path d="M -9.484375 -8.390625 L -9.484375 -7.25 L -1.734375 -7.25 L -9.484375 -2.296875 L -9.484375 -0.984375 L 0 -0.984375 L 0 -2.125 L -7.6875 -2.125 L 0 -7.03125 L 0 -8.390625 Z M -9.484375 -8.390625 "/>
</g>
<g id="glyph-2-1">
<path d="M -7 -3.53125 C -7 -1.609375 -5.640625 -0.46875 -3.359375 -0.46875 C -1.046875 -0.46875 0.296875 -1.609375 0.296875 -3.546875 C 0.296875 -5.46875 -1.0625 -6.625 -3.296875 -6.625 C -5.671875 -6.625 -7 -5.515625 -7 -3.53125 Z M -6 -3.546875 C -6 -4.765625 -5 -5.5 -3.3125 -5.5 C -1.703125 -5.5 -0.703125 -4.75 -0.703125 -3.546875 C -0.703125 -2.34375 -1.703125 -1.59375 -3.359375 -1.59375 C -5 -1.59375 -6 -2.34375 -6 -3.546875 Z M -6 -3.546875 "/>
</g>
<g id="glyph-2-2">
<path d="M -6.8125 -0.90625 L 0 -0.90625 L 0 -2 L -4.28125 -2 C -5.265625 -2 -6.0625 -2.71875 -6.0625 -3.59375 C -6.0625 -4.40625 -5.5625 -4.859375 -4.6875 -4.859375 L 0 -4.859375 L 0 -5.953125 L -4.28125 -5.953125 C -5.265625 -5.953125 -6.0625 -6.671875 -6.0625 -7.546875 C -6.0625 -8.34375 -5.546875 -8.8125 -4.6875 -8.8125 L 0 -8.8125 L 0 -9.90625 L -5.109375 -9.90625 C -6.328125 -9.90625 -7 -9.203125 -7 -7.9375 C -7 -7.015625 -6.734375 -6.46875 -5.96875 -5.84375 C -6.6875 -5.4375 -7 -4.890625 -7 -4 C -7 -3.09375 -6.671875 -2.484375 -5.84375 -1.90625 L -6.8125 -1.90625 Z M -6.8125 -0.90625 "/>
</g>
<g id="glyph-2-3">
<path d="M -9.484375 -0.703125 L 0 -0.703125 L 0 -1.671875 L -0.875 -1.671875 C -0.078125 -2.203125 0.296875 -2.890625 0.296875 -3.828125 C 0.296875 -5.625 -1.171875 -6.796875 -3.4375 -6.796875 C -5.640625 -6.796875 -7 -5.6875 -7 -3.890625 C -7 -2.953125 -6.65625 -2.28125 -5.890625 -1.78125 L -9.484375 -1.78125 Z M -6 -3.671875 C -6 -4.890625 -4.9375 -5.671875 -3.3125 -5.671875 C -1.765625 -5.671875 -0.71875 -4.859375 -0.71875 -3.671875 C -0.71875 -2.515625 -1.75 -1.78125 -3.359375 -1.78125 C -4.953125 -1.78125 -6 -2.515625 -6 -3.671875 Z M -6 -3.671875 "/>
</g>
<g id="glyph-2-4">
<path d="M -6.8125 -0.890625 L 0 -0.890625 L 0 -1.984375 L -3.53125 -1.984375 C -5.171875 -2 -5.90625 -2.671875 -5.859375 -4.171875 L -6.96875 -4.171875 C -7 -3.984375 -7 -3.890625 -7 -3.75 C -7 -3.0625 -6.59375 -2.515625 -5.578125 -1.890625 L -6.8125 -1.890625 Z M -6.8125 -0.890625 "/>
</g>
<g id="glyph-2-5">
<path d="M -3.046875 -6.671875 C -4.078125 -6.671875 -4.703125 -6.59375 -5.21875 -6.390625 C -6.328125 -5.953125 -7 -4.90625 -7 -3.640625 C -7 -1.734375 -5.5625 -0.515625 -3.3125 -0.515625 C -1.0625 -0.515625 0.296875 -1.6875 0.296875 -3.609375 C 0.296875 -5.171875 -0.578125 -6.25 -2.0625 -6.53125 L -2.0625 -5.4375 C -1.171875 -5.140625 -0.703125 -4.53125 -0.703125 -3.65625 C -0.703125 -2.96875 -1.015625 -2.375 -1.59375 -2.015625 C -1.96875 -1.75 -2.359375 -1.65625 -3.046875 -1.65625 Z M -3.921875 -1.671875 C -5.1875 -1.765625 -6 -2.53125 -6 -3.625 C -6 -4.734375 -5.140625 -5.5 -3.921875 -5.5 Z M -3.921875 -1.671875 "/>
</g>
<g id="glyph-2-6">
</g>
<g id="glyph-2-7">
<path d="M -9.484375 -6.4375 L -9.484375 -5.359375 L -5.953125 -5.359375 C -6.640625 -4.90625 -7 -4.171875 -7 -3.265625 C -7 -1.5 -5.59375 -0.34375 -3.421875 -0.34375 C -1.125 -0.34375 0.296875 -1.453125 0.296875 -3.296875 C 0.296875 -4.234375 -0.046875 -4.890625 -0.890625 -5.46875 L 0 -5.46875 L 0 -6.4375 Z M -6 -3.4375 C -6 -4.609375 -4.96875 -5.359375 -3.328125 -5.359375 C -1.75 -5.359375 -0.71875 -4.609375 -0.71875 -3.453125 C -0.71875 -2.265625 -1.765625 -1.46875 -3.359375 -1.46875 C -4.9375 -1.46875 -6 -2.265625 -6 -3.4375 Z M -6 -3.4375 "/>
</g>
<g id="glyph-2-8">
<path d="M 0 -3.703125 L -6.8125 -6.3125 L -6.8125 -5.09375 L -1.28125 -3.171875 L -6.8125 -1.359375 L -6.8125 -0.125 L 0 -2.515625 Z M 0 -3.703125 "/>
</g>
<g id="glyph-2-9">
<path d="M -3.046875 -6.671875 C -4.078125 -6.671875 -4.703125 -6.59375 -5.21875 -6.390625 C -6.328125 -5.953125 -7 -4.90625 -7 -3.640625 C -7 -1.734375 -5.5625 -0.515625 -3.3125 -0.515625 C -1.0625 -0.515625 0.296875 -1.6875 0.296875 -3.609375 C 0.296875 -5.171875 -0.578125 -6.25 -2.0625 -6.53125 L -2.0625 -5.4375 C -1.171875 -5.140625 -0.703125 -4.53125 -0.703125 -3.65625 C -0.703125 -2.96875 -1.015625 -2.375 -1.59375 -2.015625 C -1.96875 -1.75 -2.359375 -1.65625 -3.046875 -1.65625 Z M -3.921875 -1.671875 C -5.1875 -1.765625 -6 -2.53125 -6 -3.625 C -6 -4.734375 -5.140625 -5.5 -3.921875 -5.5 Z M -9.625 -4 L -7.703125 -2.75 L -7.703125 -3.53125 L -9.625 -5.46875 Z M -9.625 -4 "/>
</g>
<g id="glyph-2-10">
<path d="M -9.484375 -0.90625 L 0 -0.90625 L 0 -1.984375 L -3.75 -1.984375 C -5.140625 -1.984375 -6.0625 -2.71875 -6.0625 -3.828125 C -6.0625 -4.203125 -5.953125 -4.53125 -5.765625 -4.796875 C -5.53125 -5.109375 -5.203125 -5.234375 -4.71875 -5.234375 L 0 -5.234375 L 0 -6.3125 L -5.140625 -6.3125 C -6.296875 -6.3125 -7 -5.5 -7 -4.171875 C -7 -3.21875 -6.703125 -2.625 -5.875 -1.984375 L -9.484375 -1.984375 Z M -9.484375 -0.90625 "/>
</g>
<g id="glyph-2-11">
<path d="M -6.8125 -1.953125 L -6.8125 -0.875 L 0 -0.875 L 0 -1.953125 Z M -9.484375 -1.953125 L -9.484375 -0.859375 L -8.109375 -0.859375 L -8.109375 -1.953125 Z M -9.484375 -1.953125 "/>
</g>
<g id="glyph-2-12">
<path d="M -4.53125 -6.125 C -5.1875 -6.078125 -5.609375 -5.921875 -6 -5.671875 C -6.625 -5.203125 -7 -4.375 -7 -3.4375 C -7 -1.59375 -5.546875 -0.40625 -3.28125 -0.40625 C -1.09375 -0.40625 0.296875 -1.578125 0.296875 -3.421875 C 0.296875 -5.046875 -0.671875 -6.078125 -2.34375 -6.203125 L -2.34375 -5.109375 C -1.25 -4.921875 -0.703125 -4.375 -0.703125 -3.4375 C -0.703125 -2.25 -1.671875 -1.53125 -3.28125 -1.53125 C -4.984375 -1.53125 -6 -2.234375 -6 -3.421875 C -6 -4.328125 -5.46875 -4.90625 -4.53125 -5.03125 Z M -4.53125 -6.125 "/>
</g>
<g id="glyph-2-13">
<path d="M 0 -6.265625 L -6.8125 -6.265625 L -6.8125 -5.1875 L -2.953125 -5.1875 C -1.5625 -5.1875 -0.65625 -4.453125 -0.65625 -3.328125 C -0.65625 -2.46875 -1.171875 -1.921875 -1.984375 -1.921875 L -6.8125 -1.921875 L -6.8125 -0.84375 L -1.5625 -0.84375 C -0.421875 -0.84375 0.296875 -1.6875 0.296875 -3.015625 C 0.296875 -4.015625 -0.046875 -4.65625 -0.953125 -5.296875 L 0 -5.296875 Z M 0 -6.265625 "/>
</g>
<g id="glyph-2-14">
<path d="M -9.484375 -1.96875 L -9.484375 -0.890625 L 0 -0.890625 L 0 -1.96875 Z M -9.484375 -1.96875 "/>
</g>
<g id="glyph-2-15">
<path d="M -4.90625 -5.6875 C -6.25 -5.6875 -7 -4.796875 -7 -3.21875 C -7 -1.640625 -6.1875 -0.609375 -4.921875 -0.609375 C -3.859375 -0.609375 -3.359375 -1.15625 -2.96875 -2.765625 L -2.71875 -3.78125 C -2.53125 -4.53125 -2.265625 -4.84375 -1.78125 -4.84375 C -1.125 -4.84375 -0.703125 -4.203125 -0.703125 -3.25 C -0.703125 -2.671875 -0.875 -2.171875 -1.15625 -1.890625 C -1.359375 -1.734375 -1.546875 -1.65625 -2.03125 -1.59375 L -2.03125 -0.4375 C -0.453125 -0.5 0.296875 -1.375 0.296875 -3.15625 C 0.296875 -4.875 -0.546875 -5.96875 -1.859375 -5.96875 C -2.875 -5.96875 -3.4375 -5.390625 -3.75 -4.046875 L -4 -3 C -4.21875 -2.125 -4.5 -1.734375 -4.984375 -1.734375 C -5.609375 -1.734375 -6 -2.296875 -6 -3.1875 C -6 -4.0625 -5.625 -4.53125 -4.90625 -4.546875 Z M -4.90625 -5.6875 "/>
</g>
<g id="glyph-3-0">
<path d="M 0.984375 0 L 4.0625 0 C 6.09375 0 7.34375 -1.515625 7.34375 -4.015625 C 7.34375 -6.5 6.109375 -8.015625 4.0625 -8.015625 L 0.984375 -8.015625 Z M 2 -0.90625 L 2 -7.109375 L 3.890625 -7.109375 C 5.484375 -7.109375 6.3125 -6.046875 6.3125 -4 C 6.3125 -1.96875 5.484375 -0.90625 3.890625 -0.90625 Z M 2 -0.90625 "/>
</g>
<g id="glyph-3-1">
<path d="M 2.984375 -5.921875 C 1.359375 -5.921875 0.390625 -4.78125 0.390625 -2.84375 C 0.390625 -0.890625 1.359375 0.25 3 0.25 C 4.625 0.25 5.609375 -0.90625 5.609375 -2.796875 C 5.609375 -4.796875 4.65625 -5.921875 2.984375 -5.921875 Z M 3 -5.078125 C 4.03125 -5.078125 4.65625 -4.234375 4.65625 -2.8125 C 4.65625 -1.4375 4.015625 -0.59375 3 -0.59375 C 1.984375 -0.59375 1.359375 -1.4375 1.359375 -2.84375 C 1.359375 -4.234375 1.984375 -5.078125 3 -5.078125 Z M 3 -5.078125 "/>
</g>
<g id="glyph-3-2">
<path d="M 0.765625 -5.765625 L 0.765625 0 L 1.6875 0 L 1.6875 -3.171875 C 1.6875 -4.359375 2.3125 -5.125 3.25 -5.125 C 3.984375 -5.125 4.4375 -4.6875 4.4375 -4 L 4.4375 0 L 5.359375 0 L 5.359375 -4.359375 C 5.359375 -5.3125 4.640625 -5.921875 3.53125 -5.921875 C 2.671875 -5.921875 2.125 -5.59375 1.609375 -4.796875 L 1.609375 -5.765625 Z M 0.765625 -5.765625 "/>
</g>
<g id="glyph-3-3">
<path d="M 5.640625 -2.578125 C 5.640625 -3.453125 5.578125 -3.984375 5.40625 -4.40625 C 5.03125 -5.359375 4.15625 -5.921875 3.078125 -5.921875 C 1.46875 -5.921875 0.4375 -4.703125 0.4375 -2.8125 C 0.4375 -0.90625 1.4375 0.25 3.0625 0.25 C 4.375 0.25 5.296875 -0.5 5.515625 -1.75 L 4.59375 -1.75 C 4.34375 -0.984375 3.828125 -0.59375 3.09375 -0.59375 C 2.515625 -0.59375 2.015625 -0.859375 1.703125 -1.34375 C 1.484375 -1.671875 1.40625 -2 1.390625 -2.578125 Z M 1.421875 -3.328125 C 1.5 -4.390625 2.140625 -5.078125 3.0625 -5.078125 C 4 -5.078125 4.65625 -4.359375 4.65625 -3.328125 Z M 3.390625 -8.140625 L 2.328125 -6.515625 L 2.984375 -6.515625 L 4.625 -8.140625 Z M 3.390625 -8.140625 "/>
</g>
<g id="glyph-3-4">
<path d="M 5.640625 -2.578125 C 5.640625 -3.453125 5.578125 -3.984375 5.40625 -4.40625 C 5.03125 -5.359375 4.15625 -5.921875 3.078125 -5.921875 C 1.46875 -5.921875 0.4375 -4.703125 0.4375 -2.8125 C 0.4375 -0.90625 1.4375 0.25 3.0625 0.25 C 4.375 0.25 5.296875 -0.5 5.515625 -1.75 L 4.59375 -1.75 C 4.34375 -0.984375 3.828125 -0.59375 3.09375 -0.59375 C 2.515625 -0.59375 2.015625 -0.859375 1.703125 -1.34375 C 1.484375 -1.671875 1.40625 -2 1.390625 -2.578125 Z M 1.421875 -3.328125 C 1.5 -4.390625 2.140625 -5.078125 3.0625 -5.078125 C 4 -5.078125 4.65625 -4.359375 4.65625 -3.328125 Z M 1.421875 -3.328125 "/>
</g>
<g id="glyph-3-5">
<path d="M 4.8125 -4.15625 C 4.8125 -5.296875 4.0625 -5.921875 2.734375 -5.921875 C 1.390625 -5.921875 0.515625 -5.234375 0.515625 -4.171875 C 0.515625 -3.265625 0.984375 -2.84375 2.34375 -2.515625 L 3.203125 -2.296875 C 3.84375 -2.140625 4.09375 -1.90625 4.09375 -1.5 C 4.09375 -0.953125 3.546875 -0.59375 2.75 -0.59375 C 2.25 -0.59375 1.84375 -0.734375 1.609375 -0.984375 C 1.46875 -1.140625 1.390625 -1.3125 1.34375 -1.71875 L 0.375 -1.71875 C 0.421875 -0.390625 1.171875 0.25 2.671875 0.25 C 4.125 0.25 5.046875 -0.46875 5.046875 -1.578125 C 5.046875 -2.4375 4.5625 -2.90625 3.421875 -3.171875 L 2.546875 -3.390625 C 1.796875 -3.5625 1.46875 -3.8125 1.46875 -4.21875 C 1.46875 -4.75 1.953125 -5.078125 2.6875 -5.078125 C 3.4375 -5.078125 3.828125 -4.765625 3.84375 -4.15625 Z M 4.8125 -4.15625 "/>
</g>
<g id="glyph-3-6">
</g>
<g id="glyph-3-7">
<path d="M 2.359375 -1.140625 L 1.203125 -1.140625 L 1.203125 0 L 2.359375 0 Z M 2.359375 -5.765625 L 1.203125 -5.765625 L 1.203125 -4.625 L 2.359375 -4.625 Z M 2.359375 -5.765625 "/>
</g>
<g id="glyph-3-8">
<path d="M 0.765625 -5.765625 L 0.765625 0.84375 C 0.765625 1.40625 0.59375 1.59375 0.015625 1.59375 C -0.046875 1.59375 -0.078125 1.59375 -0.203125 1.578125 L -0.203125 2.359375 C -0.09375 2.390625 -0.03125 2.390625 0.109375 2.390625 C 1.140625 2.390625 1.6875 1.984375 1.6875 1.203125 L 1.6875 -5.765625 Z M 1.6875 -8.015625 L 0.765625 -8.015625 L 0.765625 -6.859375 L 1.6875 -6.859375 Z M 1.6875 -8.015625 "/>
</g>
<g id="glyph-3-9">
<path d="M 5.296875 0 L 5.296875 -5.765625 L 4.390625 -5.765625 L 4.390625 -2.5 C 4.390625 -1.3125 3.765625 -0.546875 2.8125 -0.546875 C 2.09375 -0.546875 1.625 -0.984375 1.625 -1.6875 L 1.625 -5.765625 L 0.71875 -5.765625 L 0.71875 -1.3125 C 0.71875 -0.359375 1.4375 0.25 2.546875 0.25 C 3.40625 0.25 3.9375 -0.046875 4.484375 -0.796875 L 4.484375 0 Z M 5.296875 0 "/>
</g>
<g id="glyph-3-10">
<path d="M 1.65625 -5.765625 L 0.734375 -5.765625 L 0.734375 0 L 1.65625 0 Z M 1.65625 -8.015625 L 0.71875 -8.015625 L 0.71875 -6.859375 L 1.65625 -6.859375 Z M 1.65625 -8.015625 "/>
</g>
<g id="glyph-3-11">
<path d="M 2.796875 -5.765625 L 1.84375 -5.765625 L 1.84375 -7.34375 L 0.9375 -7.34375 L 0.9375 -5.765625 L 0.15625 -5.765625 L 0.15625 -5.015625 L 0.9375 -5.015625 L 0.9375 -0.65625 C 0.9375 -0.0625 1.328125 0.25 2.046875 0.25 C 2.28125 0.25 2.484375 0.234375 2.796875 0.171875 L 2.796875 -0.59375 C 2.65625 -0.5625 2.546875 -0.546875 2.359375 -0.546875 C 1.953125 -0.546875 1.84375 -0.65625 1.84375 -1.0625 L 1.84375 -5.015625 L 2.796875 -5.015625 Z M 2.796875 -5.765625 "/>
</g>
<g id="glyph-3-12">
<path d="M 4.4375 -5.765625 L 4.4375 -4.921875 C 3.984375 -5.625 3.46875 -5.921875 2.75 -5.921875 C 1.359375 -5.921875 0.390625 -4.625 0.390625 -2.78125 C 0.390625 -1.8125 0.609375 -1.109375 1.109375 -0.53125 C 1.546875 -0.015625 2.09375 0.25 2.6875 0.25 C 3.375 0.25 3.875 -0.0625 4.359375 -0.78125 L 4.359375 -0.484375 C 4.359375 1.0625 3.921875 1.625 2.78125 1.625 C 2 1.625 1.59375 1.3125 1.5 0.65625 L 0.578125 0.65625 C 0.65625 1.734375 1.5 2.390625 2.765625 2.390625 C 3.609375 2.390625 4.3125 2.125 4.6875 1.65625 C 5.125 1.125 5.296875 0.40625 5.296875 -0.953125 L 5.296875 -5.765625 Z M 2.84375 -5.078125 C 3.8125 -5.078125 4.359375 -4.265625 4.359375 -2.8125 C 4.359375 -1.40625 3.796875 -0.59375 2.84375 -0.59375 C 1.890625 -0.59375 1.34375 -1.421875 1.34375 -2.84375 C 1.34375 -4.25 1.890625 -5.078125 2.84375 -5.078125 Z M 2.84375 -5.078125 "/>
</g>
<g id="glyph-3-13">
<path d="M 0.765625 -5.765625 L 0.765625 0 L 1.6875 0 L 1.6875 -2.984375 C 1.6875 -4.375 2.265625 -5 3.53125 -4.96875 L 3.53125 -5.890625 C 3.375 -5.921875 3.28125 -5.921875 3.171875 -5.921875 C 2.578125 -5.921875 2.140625 -5.578125 1.609375 -4.71875 L 1.609375 -5.765625 Z M 0.765625 -5.765625 "/>
</g>
<g id="glyph-3-14">
<path d="M 0.765625 -5.765625 L 0.765625 0 L 1.6875 0 L 1.6875 -3.625 C 1.6875 -4.453125 2.296875 -5.125 3.046875 -5.125 C 3.734375 -5.125 4.109375 -4.703125 4.109375 -3.96875 L 4.109375 0 L 5.03125 0 L 5.03125 -3.625 C 5.03125 -4.453125 5.640625 -5.125 6.390625 -5.125 C 7.0625 -5.125 7.453125 -4.703125 7.453125 -3.96875 L 7.453125 0 L 8.375 0 L 8.375 -4.328125 C 8.375 -5.359375 7.78125 -5.921875 6.703125 -5.921875 C 5.9375 -5.921875 5.484375 -5.703125 4.9375 -5.046875 C 4.59375 -5.671875 4.140625 -5.921875 3.390625 -5.921875 C 2.625 -5.921875 2.09375 -5.640625 1.609375 -4.953125 L 1.609375 -5.765625 Z M 0.765625 -5.765625 "/>
</g>
<g id="glyph-3-15">
<path d="M 5.1875 -3.828125 C 5.140625 -4.390625 5.015625 -4.75 4.796875 -5.078125 C 4.40625 -5.609375 3.703125 -5.921875 2.90625 -5.921875 C 1.34375 -5.921875 0.34375 -4.703125 0.34375 -2.78125 C 0.34375 -0.921875 1.328125 0.25 2.890625 0.25 C 4.265625 0.25 5.140625 -0.578125 5.25 -1.984375 L 4.328125 -1.984375 C 4.171875 -1.0625 3.703125 -0.59375 2.921875 -0.59375 C 1.90625 -0.59375 1.296875 -1.421875 1.296875 -2.78125 C 1.296875 -4.21875 1.890625 -5.078125 2.890625 -5.078125 C 3.65625 -5.078125 4.140625 -4.625 4.25 -3.828125 Z M 5.1875 -3.828125 "/>
</g>
<g id="glyph-3-16">
<path d="M 5.890625 -0.53125 C 5.78125 -0.515625 5.734375 -0.515625 5.6875 -0.515625 C 5.375 -0.515625 5.1875 -0.6875 5.1875 -0.96875 L 5.1875 -4.359375 C 5.1875 -5.375 4.4375 -5.921875 3.03125 -5.921875 C 2.171875 -5.921875 1.5 -5.6875 1.109375 -5.265625 C 0.84375 -4.96875 0.734375 -4.625 0.71875 -4.0625 L 1.640625 -4.0625 C 1.71875 -4.765625 2.140625 -5.078125 2.984375 -5.078125 C 3.828125 -5.078125 4.28125 -4.78125 4.28125 -4.21875 L 4.28125 -3.984375 C 4.265625 -3.59375 4.0625 -3.4375 3.328125 -3.34375 C 2.03125 -3.171875 1.828125 -3.140625 1.46875 -2.984375 C 0.796875 -2.703125 0.46875 -2.203125 0.46875 -1.453125 C 0.46875 -0.40625 1.1875 0.25 2.359375 0.25 C 3.078125 0.25 3.65625 0 4.3125 -0.59375 C 4.375 0 4.65625 0.25 5.265625 0.25 C 5.453125 0.25 5.578125 0.234375 5.890625 0.15625 Z M 4.28125 -1.8125 C 4.28125 -1.5 4.1875 -1.3125 3.921875 -1.0625 C 3.546875 -0.71875 3.09375 -0.546875 2.546875 -0.546875 C 1.84375 -0.546875 1.421875 -0.890625 1.421875 -1.46875 C 1.421875 -2.078125 1.8125 -2.390625 2.8125 -2.53125 C 3.78125 -2.65625 3.96875 -2.703125 4.28125 -2.84375 Z M 4.28125 -1.8125 "/>
</g>
<g id="glyph-4-0">
<path d="M 1.078125 0 L 5.0625 0 C 6.625 0 7.609375 -0.359375 8.296875 -1.1875 C 9.09375 -2.140625 9.53125 -3.515625 9.53125 -5.109375 C 9.53125 -6.6875 9.09375 -8.0625 8.296875 -9.03125 C 7.609375 -9.859375 6.640625 -10.203125 5.0625 -10.203125 L 1.078125 -10.203125 Z M 3.171875 -1.75 L 3.171875 -8.453125 L 5.0625 -8.453125 C 6.65625 -8.453125 7.4375 -7.34375 7.4375 -5.09375 C 7.4375 -2.859375 6.65625 -1.75 5.0625 -1.75 Z M 3.171875 -1.75 "/>
</g>
<g id="glyph-4-1">
<path d="M 2.890625 -7.5625 L 0.9375 -7.5625 L 0.9375 0 L 2.890625 0 Z M 2.890625 -10.203125 L 0.9375 -10.203125 L 0.9375 -8.453125 L 2.890625 -8.453125 Z M 2.890625 -10.203125 "/>
</g>
<g id="glyph-4-2">
<path d="M 7.0625 -5.125 C 7.046875 -6.71875 5.8125 -7.6875 3.78125 -7.6875 C 1.859375 -7.6875 0.671875 -6.71875 0.671875 -5.171875 C 0.671875 -4.65625 0.828125 -4.234375 1.09375 -3.9375 C 1.359375 -3.671875 1.59375 -3.546875 2.328125 -3.296875 L 4.65625 -2.578125 C 5.15625 -2.421875 5.3125 -2.265625 5.3125 -1.953125 C 5.3125 -1.5 4.78125 -1.21875 3.859375 -1.21875 C 3.34375 -1.21875 2.953125 -1.296875 2.703125 -1.484375 C 2.484375 -1.640625 2.40625 -1.796875 2.328125 -2.203125 L 0.40625 -2.203125 C 0.46875 -0.53125 1.6875 0.328125 3.96875 0.328125 C 5.03125 0.328125 5.828125 0.09375 6.390625 -0.34375 C 6.9375 -0.796875 7.28125 -1.5 7.28125 -2.234375 C 7.28125 -3.21875 6.796875 -3.84375 5.796875 -4.140625 L 3.3125 -4.859375 C 2.765625 -5.03125 2.625 -5.140625 2.625 -5.453125 C 2.625 -5.859375 3.078125 -6.140625 3.765625 -6.140625 C 4.703125 -6.140625 5.171875 -5.8125 5.1875 -5.125 Z M 7.0625 -5.125 "/>
</g>
<g id="glyph-4-3">
<path d="M 4.21875 -7.40625 L 3.125 -7.40625 L 3.125 -9.4375 L 1.15625 -9.4375 L 1.15625 -7.40625 L 0.203125 -7.40625 L 0.203125 -6.109375 L 1.15625 -6.109375 L 1.15625 -1.453125 C 1.15625 -0.265625 1.796875 0.328125 3.078125 0.328125 C 3.53125 0.328125 3.84375 0.28125 4.21875 0.171875 L 4.21875 -1.203125 C 4.015625 -1.171875 3.921875 -1.15625 3.765625 -1.15625 C 3.25 -1.15625 3.125 -1.3125 3.125 -1.984375 L 3.125 -6.109375 L 4.21875 -6.109375 Z M 4.21875 -7.40625 "/>
</g>
<g id="glyph-4-4">
<path d="M 0.875 -7.5625 L 0.875 0 L 2.84375 0 L 2.84375 -4.015625 C 2.84375 -5.171875 3.421875 -5.734375 4.5625 -5.734375 C 4.78125 -5.734375 4.90625 -5.71875 5.1875 -5.6875 L 5.1875 -7.671875 C 5.0625 -7.6875 5.03125 -7.6875 4.9375 -7.6875 C 4.046875 -7.6875 3.28125 -7.09375 2.84375 -6.078125 L 2.84375 -7.5625 Z M 0.875 -7.5625 "/>
</g>
<g id="glyph-4-5">
<path d="M 0.828125 -10.203125 L 0.828125 0 L 2.78125 0 L 2.78125 -0.765625 C 3.265625 -0.03125 3.921875 0.328125 4.875 0.328125 C 6.671875 0.328125 8.046875 -1.40625 8.046875 -3.6875 C 8.046875 -4.703125 7.734375 -5.734375 7.234375 -6.46875 C 6.71875 -7.203125 5.796875 -7.6875 4.875 -7.6875 C 3.921875 -7.6875 3.265625 -7.34375 2.78125 -6.578125 L 2.78125 -10.203125 Z M 4.4375 -6.046875 C 5.40625 -6.046875 6.09375 -5.0625 6.09375 -3.671875 C 6.09375 -2.28125 5.421875 -1.3125 4.4375 -1.3125 C 3.4375 -1.3125 2.78125 -2.25 2.78125 -3.703125 C 2.78125 -5.09375 3.453125 -6.046875 4.4375 -6.046875 Z M 4.4375 -6.046875 "/>
</g>
<g id="glyph-4-6">
<path d="M 7.578125 0 L 7.578125 -7.5625 L 5.609375 -7.5625 L 5.609375 -2.828125 C 5.609375 -1.9375 5 -1.34375 4.03125 -1.34375 C 3.1875 -1.34375 2.765625 -1.796875 2.765625 -2.703125 L 2.765625 -7.5625 L 0.8125 -7.5625 L 0.8125 -2.296875 C 0.8125 -0.609375 1.71875 0.328125 3.34375 0.328125 C 4.375 0.328125 5.046875 -0.046875 5.609375 -0.890625 L 5.609375 0 Z M 7.578125 0 "/>
</g>
<g id="glyph-4-7">
<path d="M 4.21875 -7.6875 C 1.90625 -7.6875 0.484375 -6.15625 0.484375 -3.6875 C 0.484375 -1.1875 1.90625 0.328125 4.234375 0.328125 C 6.53125 0.328125 7.96875 -1.1875 7.96875 -3.625 C 7.96875 -6.1875 6.578125 -7.6875 4.21875 -7.6875 Z M 4.234375 -6.109375 C 5.3125 -6.109375 6 -5.140625 6 -3.65625 C 6 -2.234375 5.28125 -1.265625 4.234375 -1.265625 C 3.15625 -1.265625 2.453125 -2.21875 2.453125 -3.6875 C 2.453125 -5.140625 3.15625 -6.109375 4.234375 -6.109375 Z M 4.234375 -6.109375 "/>
</g>
<g id="glyph-4-8">
<path d="M 0.875 -7.5625 L 0.875 0 L 2.84375 0 L 2.84375 -4.53125 C 2.84375 -5.4375 3.453125 -6.015625 4.421875 -6.015625 C 5.265625 -6.015625 5.6875 -5.5625 5.6875 -4.65625 L 5.6875 0 L 7.640625 0 L 7.640625 -5.0625 C 7.640625 -6.75 6.734375 -7.6875 5.109375 -7.6875 C 4.09375 -7.6875 3.40625 -7.328125 2.84375 -6.46875 L 2.84375 -7.5625 Z M 0.875 -7.5625 "/>
</g>
<g id="glyph-4-9">
</g>
<g id="glyph-4-10">
<path d="M 5.671875 0 L 7.625 0 L 7.625 -10.203125 L 5.671875 -10.203125 L 5.671875 -6.578125 C 5.1875 -7.34375 4.53125 -7.6875 3.578125 -7.6875 C 1.78125 -7.6875 0.40625 -5.953125 0.40625 -3.671875 C 0.40625 -2.640625 0.71875 -1.609375 1.21875 -0.875 C 1.734375 -0.140625 2.65625 0.328125 3.578125 0.328125 C 4.53125 0.328125 5.1875 -0.015625 5.671875 -0.765625 Z M 4.015625 -6.046875 C 5.015625 -6.046875 5.671875 -5.09375 5.671875 -3.640625 C 5.671875 -2.265625 5 -1.3125 4.015625 -1.3125 C 3.03125 -1.3125 2.359375 -2.28125 2.359375 -3.671875 C 2.359375 -5.078125 3.03125 -6.046875 4.015625 -6.046875 Z M 4.015625 -6.046875 "/>
</g>
<g id="glyph-4-11">
<path d="M 7.34375 -3.15625 C 7.34375 -3.328125 7.34375 -3.40625 7.34375 -3.5 C 7.34375 -4.25 7.234375 -4.953125 7.0625 -5.484375 C 6.546875 -6.859375 5.328125 -7.6875 3.8125 -7.6875 C 1.640625 -7.6875 0.3125 -6.125 0.3125 -3.578125 C 0.3125 -1.15625 1.625 0.328125 3.765625 0.328125 C 5.453125 0.328125 6.828125 -0.625 7.265625 -2.125 L 5.328125 -2.125 C 5.09375 -1.53125 4.546875 -1.171875 3.84375 -1.171875 C 3.28125 -1.171875 2.828125 -1.40625 2.546875 -1.828125 C 2.359375 -2.109375 2.296875 -2.453125 2.265625 -3.15625 Z M 2.296875 -4.46875 C 2.421875 -5.625 2.90625 -6.1875 3.78125 -6.1875 C 4.671875 -6.1875 5.203125 -5.59375 5.3125 -4.46875 Z M 2.296875 -4.46875 "/>
</g>
<g id="glyph-4-12">
<path d="M 2.890625 -10.203125 L 0.9375 -10.203125 L 0.9375 0 L 2.890625 0 Z M 2.890625 -10.203125 "/>
</g>
<g id="glyph-4-13">
<path d="M 7.34375 -0.234375 C 7 -0.5625 6.890625 -0.78125 6.890625 -1.15625 L 6.890625 -5.359375 C 6.890625 -6.90625 5.84375 -7.6875 3.796875 -7.6875 C 1.75 -7.6875 0.6875 -6.8125 0.5625 -5.0625 L 2.453125 -5.0625 C 2.546875 -5.859375 2.875 -6.109375 3.84375 -6.109375 C 4.59375 -6.109375 4.96875 -5.859375 4.96875 -5.34375 C 4.96875 -5.09375 4.84375 -4.890625 4.640625 -4.765625 C 4.375 -4.625 4.375 -4.625 3.40625 -4.46875 L 2.625 -4.328125 C 1.125 -4.078125 0.390625 -3.296875 0.390625 -1.953125 C 0.390625 -0.59375 1.296875 0.328125 2.6875 0.328125 C 3.53125 0.328125 4.28125 -0.03125 4.984375 -0.75 C 4.984375 -0.359375 5.03125 -0.21875 5.203125 0 L 7.34375 0 Z M 4.96875 -3.03125 C 4.96875 -1.90625 4.40625 -1.265625 3.421875 -1.265625 C 2.765625 -1.265625 2.359375 -1.609375 2.359375 -2.171875 C 2.359375 -2.765625 2.65625 -3.03125 3.46875 -3.203125 L 4.140625 -3.328125 C 4.65625 -3.4375 4.75 -3.453125 4.96875 -3.5625 Z M 4.96875 -3.03125 "/>
</g>
<g id="glyph-4-14">
<path d="M 7.3125 -4.734375 C 7.171875 -6.578125 5.953125 -7.6875 4.046875 -7.6875 C 1.78125 -7.6875 0.46875 -6.203125 0.46875 -3.625 C 0.46875 -1.140625 1.78125 0.328125 4.015625 0.328125 C 5.859375 0.328125 7.125 -0.8125 7.3125 -2.625 L 5.4375 -2.625 C 5.1875 -1.640625 4.796875 -1.265625 4.015625 -1.265625 C 3.03125 -1.265625 2.4375 -2.140625 2.4375 -3.625 C 2.4375 -4.359375 2.578125 -5.015625 2.8125 -5.453125 C 3.03125 -5.875 3.46875 -6.109375 4.03125 -6.109375 C 4.828125 -6.109375 5.203125 -5.71875 5.4375 -4.734375 Z M 7.3125 -4.734375 "/>
</g>
<g id="glyph-4-15">
<path d="M 0.84375 -7.5625 L 0.84375 0 L 2.796875 0 L 2.796875 -4.53125 C 2.796875 -5.46875 3.296875 -6.015625 4.140625 -6.015625 C 4.796875 -6.015625 5.203125 -5.640625 5.203125 -5.046875 L 5.203125 0 L 7.171875 0 L 7.171875 -4.53125 C 7.171875 -5.453125 7.671875 -6.015625 8.515625 -6.015625 C 9.171875 -6.015625 9.578125 -5.640625 9.578125 -5.046875 L 9.578125 0 L 11.53125 0 L 11.53125 -5.34375 C 11.53125 -6.8125 10.640625 -7.6875 9.125 -7.6875 C 8.15625 -7.6875 7.5 -7.34375 6.921875 -6.5625 C 6.546875 -7.28125 5.796875 -7.6875 4.859375 -7.6875 C 3.984375 -7.6875 3.4375 -7.40625 2.78125 -6.625 L 2.78125 -7.5625 Z M 0.84375 -7.5625 "/>
</g>
<g id="glyph-4-16">
<path d="M 3.03125 -4.4375 C 3.796875 -4.4375 3.84375 -4.4375 4.1875 -4.34375 C 4.84375 -4.15625 5.265625 -3.578125 5.265625 -2.859375 C 5.265625 -1.96875 4.640625 -1.359375 3.796875 -1.359375 C 2.875 -1.359375 2.359375 -1.890625 2.3125 -2.90625 L 0.40625 -2.90625 C 0.421875 -0.921875 1.703125 0.328125 3.75 0.328125 C 5.859375 0.328125 7.21875 -0.921875 7.21875 -2.859375 C 7.21875 -4.015625 6.71875 -4.78125 5.59375 -5.3125 C 6.515625 -5.890625 6.90625 -6.53125 6.90625 -7.4375 C 6.90625 -9.09375 5.671875 -10.140625 3.75 -10.140625 C 2.3125 -10.140625 1.203125 -9.5 0.765625 -8.421875 C 0.59375 -7.953125 0.53125 -7.625 0.53125 -6.796875 L 2.359375 -6.796875 C 2.359375 -7.34375 2.40625 -7.609375 2.5 -7.859375 C 2.6875 -8.28125 3.140625 -8.546875 3.703125 -8.546875 C 4.5 -8.546875 4.9375 -8.078125 4.9375 -7.25 C 4.9375 -6.25 4.375 -5.75 3.203125 -5.75 L 3.03125 -5.75 Z M 3.03125 -4.4375 "/>
</g>
<g id="glyph-4-17">
<path d="M 7.171875 -1.75 L 2.953125 -1.75 C 3.21875 -2.28125 3.53125 -2.578125 4.984375 -3.625 C 6.703125 -4.890625 7.203125 -5.625 7.203125 -6.984375 C 7.203125 -8.90625 5.875 -10.140625 3.8125 -10.140625 C 1.75 -10.140625 0.546875 -8.921875 0.546875 -6.8125 L 0.546875 -6.46875 L 2.4375 -6.46875 L 2.4375 -6.796875 C 2.4375 -7.890625 2.953125 -8.546875 3.84375 -8.546875 C 4.71875 -8.546875 5.25 -7.9375 5.25 -6.9375 C 5.25 -5.84375 4.90625 -5.4375 2.703125 -3.859375 C 1.015625 -2.71875 0.5 -1.84375 0.421875 0 L 7.171875 0 Z M 7.171875 -1.75 "/>
</g>
<g id="glyph-4-18">
<path d="M 4.90625 0 L 7.5 -7.5625 L 5.4375 -7.5625 L 3.90625 -2.03125 L 2.265625 -7.5625 L 0.203125 -7.5625 L 2.84375 0 Z M 4.90625 0 "/>
</g>
<g id="glyph-4-19">
<path d="M 7.34375 -3.15625 C 7.34375 -3.328125 7.34375 -3.40625 7.34375 -3.5 C 7.34375 -4.25 7.234375 -4.953125 7.0625 -5.484375 C 6.546875 -6.859375 5.328125 -7.6875 3.8125 -7.6875 C 1.640625 -7.6875 0.3125 -6.125 0.3125 -3.578125 C 0.3125 -1.15625 1.625 0.328125 3.765625 0.328125 C 5.453125 0.328125 6.828125 -0.625 7.265625 -2.125 L 5.328125 -2.125 C 5.09375 -1.53125 4.546875 -1.171875 3.84375 -1.171875 C 3.28125 -1.171875 2.828125 -1.40625 2.546875 -1.828125 C 2.359375 -2.109375 2.296875 -2.453125 2.265625 -3.15625 Z M 2.296875 -4.46875 C 2.421875 -5.625 2.90625 -6.1875 3.78125 -6.1875 C 4.671875 -6.1875 5.203125 -5.59375 5.3125 -4.46875 Z M 5.859375 -10.59375 L 4.109375 -10.59375 L 3.125 -8.5 L 4.109375 -8.5 Z M 5.859375 -10.59375 "/>
</g>
<g id="glyph-4-20">
<path d="M 0.9375 -10.203125 L 0.9375 0 L 2.890625 0 L 2.890625 -4.53125 C 2.890625 -5.40625 3.53125 -6.015625 4.40625 -6.015625 C 4.84375 -6.015625 5.171875 -5.859375 5.390625 -5.5625 C 5.578125 -5.3125 5.609375 -5.09375 5.609375 -4.625 L 5.609375 0 L 7.578125 0 L 7.578125 -5.0625 C 7.578125 -6 7.328125 -6.671875 6.796875 -7.109375 C 6.375 -7.46875 5.734375 -7.6875 5.109375 -7.6875 C 4.140625 -7.6875 3.4375 -7.3125 2.890625 -6.46875 L 2.890625 -10.203125 Z M 0.9375 -10.203125 "/>
</g>
</g>
<clipPath id="clip-0">
<path clip-rule="nonzero" d="M 34.542969 238 L 461.527344 238 L 461.527344 240 L 34.542969 240 Z M 34.542969 238 "/>
</clipPath>
<clipPath id="clip-1">
<path clip-rule="nonzero" d="M 34.542969 188 L 461.527344 188 L 461.527344 190 L 34.542969 190 Z M 34.542969 188 "/>
</clipPath>
<clipPath id="clip-2">
<path clip-rule="nonzero" d="M 34.542969 138 L 461.527344 138 L 461.527344 140 L 34.542969 140 Z M 34.542969 138 "/>
</clipPath>
<clipPath id="clip-3">
<path clip-rule="nonzero" d="M 34.542969 88 L 461.527344 88 L 461.527344 90 L 34.542969 90 Z M 34.542969 88 "/>
</clipPath>
<clipPath id="clip-4">
<path clip-rule="nonzero" d="M 85 46.425781 L 87 46.425781 L 87 248.457031 L 85 248.457031 Z M 85 46.425781 "/>
</clipPath>
<clipPath id="clip-5">
<path clip-rule="nonzero" d="M 215 46.425781 L 217 46.425781 L 217 248.457031 L 215 248.457031 Z M 215 46.425781 "/>
</clipPath>
<clipPath id="clip-6">
<path clip-rule="nonzero" d="M 344 46.425781 L 346 46.425781 L 346 248.457031 L 344 248.457031 Z M 344 46.425781 "/>
</clipPath>
</defs>
<rect x="-46.8" y="-28.8" width="561.6" height="345.6" fill="rgb(100%, 100%, 100%)" fill-opacity="1"/>
<rect x="-46.8" y="-28.8" width="561.6" height="345.6" fill="rgb(100%, 100%, 100%)" fill-opacity="1"/>
<g clip-path="url(#clip-0)">
<path fill="none" stroke-width="1.260974" stroke-linecap="butt" stroke-linejoin="round" stroke="rgb(92.156863%, 92.156863%, 92.156863%)" stroke-opacity="1" stroke-miterlimit="10" d="M 34.542969 239.273438 L 461.523438 239.273438 "/>
</g>
<g clip-path="url(#clip-1)">
<path fill="none" stroke-width="1.260974" stroke-linecap="butt" stroke-linejoin="round" stroke="rgb(92.156863%, 92.156863%, 92.156863%)" stroke-opacity="1" stroke-miterlimit="10" d="M 34.542969 189.183594 L 461.523438 189.183594 "/>
</g>
<g clip-path="url(#clip-2)">
<path fill="none" stroke-width="1.260974" stroke-linecap="butt" stroke-linejoin="round" stroke="rgb(92.156863%, 92.156863%, 92.156863%)" stroke-opacity="1" stroke-miterlimit="10" d="M 34.542969 139.09375 L 461.523438 139.09375 "/>
</g>
<g clip-path="url(#clip-3)">
<path fill="none" stroke-width="1.260974" stroke-linecap="butt" stroke-linejoin="round" stroke="rgb(92.156863%, 92.156863%, 92.156863%)" stroke-opacity="1" stroke-miterlimit="10" d="M 34.542969 89.003906 L 461.523438 89.003906 "/>
</g>
<g clip-path="url(#clip-4)">
<path fill="none" stroke-width="1.260974" stroke-linecap="butt" stroke-linejoin="round" stroke="rgb(92.156863%, 92.156863%, 92.156863%)" stroke-opacity="1" stroke-miterlimit="10" d="M 86.296875 248.457031 L 86.296875 46.425781 "/>
</g>
<g clip-path="url(#clip-5)">
<path fill="none" stroke-width="1.260974" stroke-linecap="butt" stroke-linejoin="round" stroke="rgb(92.156863%, 92.156863%, 92.156863%)" stroke-opacity="1" stroke-miterlimit="10" d="M 215.6875 248.457031 L 215.6875 46.425781 "/>
</g>
<g clip-path="url(#clip-6)">
<path fill="none" stroke-width="1.260974" stroke-linecap="butt" stroke-linejoin="round" stroke="rgb(92.156863%, 92.156863%, 92.156863%)" stroke-opacity="1" stroke-miterlimit="10" d="M 345.074219 248.457031 L 345.074219 46.425781 "/>
</g>
<path fill-rule="nonzero" fill="rgb(63.137255%, 16.862745%, 30.588235%)" fill-opacity="1" stroke-width="1.260974" stroke-linecap="butt" stroke-linejoin="miter" stroke="rgb(100%, 100%, 100%)" stroke-opacity="1" stroke-miterlimit="10" d="M 53.949219 239.273438 L 118.644531 239.273438 L 118.644531 205.878906 L 53.949219 205.878906 Z M 53.949219 239.273438 "/>
<path fill-rule="nonzero" fill="rgb(63.137255%, 16.862745%, 30.588235%)" fill-opacity="1" stroke-width="1.260974" stroke-linecap="butt" stroke-linejoin="miter" stroke="rgb(100%, 100%, 100%)" stroke-opacity="1" stroke-miterlimit="10" d="M 118.644531 239.273438 L 183.339844 239.273438 L 183.339844 72.304688 L 118.644531 72.304688 Z M 118.644531 239.273438 "/>
<path fill-rule="nonzero" fill="rgb(63.137255%, 16.862745%, 30.588235%)" fill-opacity="1" stroke-width="1.260974" stroke-linecap="butt" stroke-linejoin="miter" stroke="rgb(100%, 100%, 100%)" stroke-opacity="1" stroke-miterlimit="10" d="M 183.339844 239.273438 L 248.035156 239.273438 L 248.035156 55.609375 L 183.339844 55.609375 Z M 183.339844 239.273438 "/>
<path fill-rule="nonzero" fill="rgb(63.137255%, 16.862745%, 30.588235%)" fill-opacity="1" stroke-width="1.260974" stroke-linecap="butt" stroke-linejoin="miter" stroke="rgb(100%, 100%, 100%)" stroke-opacity="1" stroke-miterlimit="10" d="M 248.03125 239.273438 L 312.726562 239.273438 L 312.726562 155.789062 L 248.03125 155.789062 Z M 248.03125 239.273438 "/>
<path fill-rule="nonzero" fill="rgb(63.137255%, 16.862745%, 30.588235%)" fill-opacity="1" stroke-width="1.260974" stroke-linecap="butt" stroke-linejoin="miter" stroke="rgb(100%, 100%, 100%)" stroke-opacity="1" stroke-miterlimit="10" d="M 312.726562 239.273438 L 377.421875 239.273438 L 377.421875 189.183594 L 312.726562 189.183594 Z M 312.726562 239.273438 "/>
<path fill-rule="nonzero" fill="rgb(63.137255%, 16.862745%, 30.588235%)" fill-opacity="1" stroke-width="1.260974" stroke-linecap="butt" stroke-linejoin="miter" stroke="rgb(100%, 100%, 100%)" stroke-opacity="1" stroke-miterlimit="10" d="M 377.421875 239.273438 L 442.117188 239.273438 L 442.117188 222.578125 L 377.421875 222.578125 Z M 377.421875 239.273438 "/>
<g fill="rgb(30.196078%, 30.196078%, 30.196078%)" fill-opacity="1">
<use xlink:href="#glyph-0-0" x="22.714844" y="242.854492"/>
</g>
<g fill="rgb(30.196078%, 30.196078%, 30.196078%)" fill-opacity="1">
<use xlink:href="#glyph-0-1" x="22.714844" y="192.764648"/>
</g>
<g fill="rgb(30.196078%, 30.196078%, 30.196078%)" fill-opacity="1">
<use xlink:href="#glyph-0-2" x="22.714844" y="142.674805"/>
</g>
<g fill="rgb(30.196078%, 30.196078%, 30.196078%)" fill-opacity="1">
<use xlink:href="#glyph-0-3" x="22.714844" y="92.584961"/>
</g>
<g fill="rgb(30.196078%, 30.196078%, 30.196078%)" fill-opacity="1">
<use xlink:href="#glyph-0-4" x="80.296875" y="261.866211"/>
<use xlink:href="#glyph-0-0" x="86.296875" y="261.866211"/>
</g>
<g fill="rgb(30.196078%, 30.196078%, 30.196078%)" fill-opacity="1">
<use xlink:href="#glyph-0-5" x="209.6875" y="261.866211"/>
<use xlink:href="#glyph-0-0" x="215.6875" y="261.866211"/>
</g>
<g fill="rgb(30.196078%, 30.196078%, 30.196078%)" fill-opacity="1">
<use xlink:href="#glyph-0-1" x="339.074219" y="261.866211"/>
<use xlink:href="#glyph-0-0" x="345.074219" y="261.866211"/>
</g>
<g fill="rgb(0%, 0%, 0%)" fill-opacity="1">
<use xlink:href="#glyph-1-0" x="184.03125" y="278"/>
<use xlink:href="#glyph-1-1" x="195.03125" y="278"/>
<use xlink:href="#glyph-1-2" x="198.03125" y="278"/>
<use xlink:href="#glyph-1-3" x="201.03125" y="278"/>
<use xlink:href="#glyph-1-4" x="208.03125" y="278"/>
<use xlink:href="#glyph-1-5" x="215.03125" y="278"/>
<use xlink:href="#glyph-1-6" x="219.03125" y="278"/>
<use xlink:href="#glyph-1-7" x="226.03125" y="278"/>
<use xlink:href="#glyph-1-8" x="233.03125" y="278"/>
<use xlink:href="#glyph-1-5" x="237.03125" y="278"/>
<use xlink:href="#glyph-1-9" x="241.03125" y="278"/>
<use xlink:href="#glyph-1-7" x="248.03125" y="278"/>
<use xlink:href="#glyph-1-2" x="255.03125" y="278"/>
<use xlink:href="#glyph-1-2" x="258.03125" y="278"/>
<use xlink:href="#glyph-1-10" x="261.03125" y="278"/>
<use xlink:href="#glyph-1-11" x="268.03125" y="278"/>
<use xlink:href="#glyph-1-5" x="275.03125" y="278"/>
<use xlink:href="#glyph-1-12" x="279.03125" y="278"/>
<use xlink:href="#glyph-1-13" x="283.03125" y="278"/>
<use xlink:href="#glyph-1-6" x="294.03125" y="278"/>
<use xlink:href="#glyph-1-9" x="301.03125" y="278"/>
<use xlink:href="#glyph-1-14" x="308.03125" y="278"/>
</g>
<g fill="rgb(0%, 0%, 0%)" fill-opacity="1">
<use xlink:href="#glyph-2-0" x="15.953125" y="207.941406"/>
<use xlink:href="#glyph-2-1" x="15.953125" y="198.941406"/>
<use xlink:href="#glyph-2-2" x="15.953125" y="191.941406"/>
<use xlink:href="#glyph-2-3" x="15.953125" y="180.941406"/>
<use xlink:href="#glyph-2-4" x="15.953125" y="173.941406"/>
<use xlink:href="#glyph-2-5" x="15.953125" y="169.941406"/>
<use xlink:href="#glyph-2-6" x="15.953125" y="162.941406"/>
<use xlink:href="#glyph-2-7" x="15.953125" y="158.941406"/>
<use xlink:href="#glyph-2-5" x="15.953125" y="151.941406"/>
<use xlink:href="#glyph-2-6" x="15.953125" y="144.941406"/>
<use xlink:href="#glyph-2-8" x="15.953125" y="140.941406"/>
<use xlink:href="#glyph-2-9" x="15.953125" y="134.941406"/>
<use xlink:href="#glyph-2-10" x="15.953125" y="127.941406"/>
<use xlink:href="#glyph-2-11" x="15.953125" y="120.941406"/>
<use xlink:href="#glyph-2-12" x="15.953125" y="117.941406"/>
<use xlink:href="#glyph-2-13" x="15.953125" y="110.941406"/>
<use xlink:href="#glyph-2-14" x="15.953125" y="103.941406"/>
<use xlink:href="#glyph-2-5" x="15.953125" y="100.941406"/>
<use xlink:href="#glyph-2-15" x="15.953125" y="93.941406"/>
</g>
<g fill="rgb(40%, 40%, 40%)" fill-opacity="1">
<use xlink:href="#glyph-3-0" x="34.542969" y="35.97168"/>
<use xlink:href="#glyph-3-1" x="42.542969" y="35.97168"/>
<use xlink:href="#glyph-3-2" x="48.542969" y="35.97168"/>
<use xlink:href="#glyph-3-2" x="54.542969" y="35.97168"/>
<use xlink:href="#glyph-3-3" x="60.542969" y="35.97168"/>
<use xlink:href="#glyph-3-4" x="66.542969" y="35.97168"/>
<use xlink:href="#glyph-3-5" x="72.542969" y="35.97168"/>
<use xlink:href="#glyph-3-6" x="78.542969" y="35.97168"/>
<use xlink:href="#glyph-3-7" x="81.542969" y="35.97168"/>
<use xlink:href="#glyph-3-6" x="84.542969" y="35.97168"/>
<use xlink:href="#glyph-3-8" x="87.542969" y="35.97168"/>
<use xlink:href="#glyph-3-4" x="89.542969" y="35.97168"/>
<use xlink:href="#glyph-3-9" x="95.542969" y="35.97168"/>
<use xlink:href="#glyph-3-6" x="101.542969" y="35.97168"/>
<use xlink:href="#glyph-3-10" x="104.542969" y="35.97168"/>
<use xlink:href="#glyph-3-2" x="106.542969" y="35.97168"/>
<use xlink:href="#glyph-3-11" x="112.542969" y="35.97168"/>
<use xlink:href="#glyph-3-3" x="115.542969" y="35.97168"/>
<use xlink:href="#glyph-3-12" x="121.542969" y="35.97168"/>
<use xlink:href="#glyph-3-13" x="127.542969" y="35.97168"/>
<use xlink:href="#glyph-3-3" x="131.542969" y="35.97168"/>
<use xlink:href="#glyph-3-6" x="137.542969" y="35.97168"/>
<use xlink:href="#glyph-3-14" x="140.542969" y="35.97168"/>
<use xlink:href="#glyph-3-11" x="149.542969" y="35.97168"/>
<use xlink:href="#glyph-3-15" x="152.542969" y="35.97168"/>
<use xlink:href="#glyph-3-16" x="158.542969" y="35.97168"/>
<use xlink:href="#glyph-3-13" x="164.542969" y="35.97168"/>
<use xlink:href="#glyph-3-5" x="168.542969" y="35.97168"/>
</g>
<g fill="rgb(0%, 0%, 0%)" fill-opacity="1">
<use xlink:href="#glyph-4-0" x="34.542969" y="16.682617"/>
<use xlink:href="#glyph-4-1" x="44.542969" y="16.682617"/>
<use xlink:href="#glyph-4-2" x="48.542969" y="16.682617"/>
<use xlink:href="#glyph-4-3" x="56.542969" y="16.682617"/>
<use xlink:href="#glyph-4-4" x="61.542969" y="16.682617"/>
<use xlink:href="#glyph-4-1" x="66.542969" y="16.682617"/>
<use xlink:href="#glyph-4-5" x="70.542969" y="16.682617"/>
<use xlink:href="#glyph-4-6" x="79.542969" y="16.682617"/>
<use xlink:href="#glyph-4-3" x="88.542969" y="16.682617"/>
<use xlink:href="#glyph-4-1" x="93.542969" y="16.682617"/>
<use xlink:href="#glyph-4-7" x="97.542969" y="16.682617"/>
<use xlink:href="#glyph-4-8" x="106.542969" y="16.682617"/>
<use xlink:href="#glyph-4-9" x="115.542969" y="16.682617"/>
<use xlink:href="#glyph-4-10" x="119.542969" y="16.682617"/>
<use xlink:href="#glyph-4-11" x="128.542969" y="16.682617"/>
<use xlink:href="#glyph-4-9" x="136.542969" y="16.682617"/>
<use xlink:href="#glyph-4-12" x="140.542969" y="16.682617"/>
<use xlink:href="#glyph-4-13" x="144.542969" y="16.682617"/>
<use xlink:href="#glyph-4-9" x="152.542969" y="16.682617"/>
<use xlink:href="#glyph-4-14" x="156.542969" y="16.682617"/>
<use xlink:href="#glyph-4-7" x="164.542969" y="16.682617"/>
<use xlink:href="#glyph-4-8" x="173.542969" y="16.682617"/>
<use xlink:href="#glyph-4-2" x="182.542969" y="16.682617"/>
<use xlink:href="#glyph-4-7" x="190.542969" y="16.682617"/>
<use xlink:href="#glyph-4-15" x="199.542969" y="16.682617"/>
<use xlink:href="#glyph-4-15" x="211.542969" y="16.682617"/>
<use xlink:href="#glyph-4-13" x="223.542969" y="16.682617"/>
<use xlink:href="#glyph-4-3" x="231.542969" y="16.682617"/>
<use xlink:href="#glyph-4-1" x="236.542969" y="16.682617"/>
<use xlink:href="#glyph-4-7" x="240.542969" y="16.682617"/>
<use xlink:href="#glyph-4-8" x="249.542969" y="16.682617"/>
<use xlink:href="#glyph-4-9" x="258.542969" y="16.682617"/>
<use xlink:href="#glyph-4-10" x="262.542969" y="16.682617"/>
<use xlink:href="#glyph-4-11" x="271.542969" y="16.682617"/>
<use xlink:href="#glyph-4-2" x="279.542969" y="16.682617"/>
<use xlink:href="#glyph-4-9" x="287.542969" y="16.682617"/>
<use xlink:href="#glyph-4-16" x="291.542969" y="16.682617"/>
<use xlink:href="#glyph-4-17" x="299.542969" y="16.682617"/>
<use xlink:href="#glyph-4-9" x="307.542969" y="16.682617"/>
<use xlink:href="#glyph-4-18" x="311.542969" y="16.682617"/>
<use xlink:href="#glyph-4-19" x="319.542969" y="16.682617"/>
<use xlink:href="#glyph-4-20" x="327.542969" y="16.682617"/>
<use xlink:href="#glyph-4-1" x="336.542969" y="16.682617"/>
<use xlink:href="#glyph-4-14" x="340.542969" y="16.682617"/>
<use xlink:href="#glyph-4-6" x="348.542969" y="16.682617"/>
<use xlink:href="#glyph-4-12" x="357.542969" y="16.682617"/>
<use xlink:href="#glyph-4-11" x="361.542969" y="16.682617"/>
<use xlink:href="#glyph-4-2" x="369.542969" y="16.682617"/>
</g>
</svg>
